<?xml version="1.0" standalone="no"?>
<!DOCTYPE svg PUBLIC "-//W3C//DTD SVG 20010904//EN"
 "http://www.w3.org/TR/2001/REC-SVG-20010904/DTD/svg10.dtd">
<svg version="1.0" xmlns="http://www.w3.org/2000/svg"
 width="300.000000pt" height="300.000000pt" viewBox="0 0 300.000000 300.000000"
 preserveAspectRatio="xMidYMid meet">
<metadata>
Created by potrace 1.11, written by Peter Selinger 2001-2013
</metadata>
<g transform="translate(0.000000,300.000000) scale(0.100000,-0.100000)"
fill="red" stroke="#fff" strokeWidth="1">
<path d="M0 1500 l0 -1500 1500 0 1500 0 0 1500 0 1500 -1500 0 -1500 0 0
-1500z m2490 865 c16 -19 7 -69 -23 -126 -13 -24 -165 -287 -338 -584 -174
-297 -374 -643 -445 -769 -70 -126 -139 -235 -152 -244 -37 -24 -62 -4 -128
109 -52 88 -569 983 -826 1431 -102 176 -101 177 30 179 563 9 1176 15 1488
17 327 2 383 0 394 -13z"/>
<path d="M652 2251 c16 -43 853 -1460 859 -1454 4 4 57 95 118 201 l111 193
-114 187 c-63 103 -204 342 -313 532 l-198 345 -233 3 c-136 1 -232 -1 -230
-7z"/>
<path d="M1417 1933 c173 -307 371 -633 384 -633 3 0 56 87 117 194 l112 194
-162 286 -162 286 -237 0 -237 0 185 -327z"/>
<path d="M1867 2251 l-48 -6 127 -212 c69 -117 129 -213 133 -213 3 0 56 82
116 182 61 100 120 199 133 220 l23 38 -218 -2 c-120 0 -240 -4 -266 -7z"/>
</g>
</svg>
