<?xml version="1.0" encoding="UTF-8"?>
<svg width="200px" height="175px" viewBox="0 0 200 175" version="1.1" xmlns="http://www.w3.org/2000/svg" xmlns:xlink="http://www.w3.org/1999/xlink">
    <!-- Generator: Sketch 51.2 (57519) - http://www.bohemiancoding.com/sketch -->
    <title>safari-pinned-tab</title>
    <desc>Created with Sketch.</desc>
    <defs></defs>
    <g id="Page-1" stroke="none" stroke-width="1" fill="none" fill-rule="evenodd">
        <g id="safari-pinned-tab" fill="#111111" fill-rule="nonzero">
            <g id="Group" transform="translate(100.000000, 87.500000) scale(-1, 1) rotate(-180.000000) translate(-100.000000, -87.500000) translate(-0.000000, -0.000000)">
                <path d="M136.7,162.1 L131.9,161.5 L144.6,140.3 C151.5,128.6 157.5,119 157.9,119 C158.2,119 163.5,127.2 169.5,137.2 C175.6,147.2 181.5,157.1 182.8,159.2 L185.1,163 L163.3,162.8 C151.3,162.8 139.3,162.4 136.7,162.1 Z M91.7,130.3 C109,99.6 128.8,67 130.1,67 C130.4,67 135.7,75.7 141.8,86.4 L153,105.8 L136.8,134.4 L120.6,163 L96.9,163 L73.2,163 L91.7,130.3 Z M15.2,162.1 C16.8,157.8 100.5,16.1 101.1,16.7 C101.5,17.1 106.8,26.2 112.9,36.8 L124,56.1 L112.6,74.8 C106.3,85.1 92.2,109 81.3,128 L61.5,162.5 L38.2,162.8 C24.6,162.9 15,162.7 15.2,162.1 Z M199,173.5 C200.6,171.6 199.7,166.6 196.7,160.9 C195.4,158.5 180.2,132.2 162.9,102.5 C145.5,72.8 125.5,38.2 118.4,25.6 C111.4,13 104.5,2.1 103.2,1.2 C99.5,-1.2 97,0.8 90.4,12.1 C85.2,20.9 33.5,110.4 7.8,155.2 C-2.4,172.8 -2.3,172.9 10.8,173.1 C67.1,174 128.4,174.6 159.6,174.8 C192.3,175 197.9,174.8 199,173.5 Z" id="Shape"></path>
            </g>
        </g>
    </g>
</svg>